<svg height="56" width="56" xmlns="http://www.w3.org/2000/svg"><path d="m0 0h56v56h-56z" fill="#abb6b8"/><path d="m21.254 21.555h13.784l-2.009-5.393a1.17 1.17 0 0 0 -.41-.553zm-.038-6.401c.488-1.312 1.563-2.154 2.747-2.154h8.15c1.185 0 2.259.842 2.747 2.154l2.01 5.393c.602 1.618-.371 3.453-1.832 3.453h-14c-1.46 0-2.433-1.835-1.831-3.453l2.01-5.393zm-10.975 20.401h13.757l-2.009-5.393a1.17 1.17 0 0 0 -.41-.553l-11.339 5.946zm-.038-6.401c.487-1.312 1.563-2.154 2.747-2.154h8.124c1.184 0 2.258.842 2.746 2.154l2.01 5.393c.602 1.618-.371 3.453-1.832 3.453h-13.974c-1.46 0-2.433-1.835-1.831-3.453zm35.89 6.401h-13.85l11.43-5.945c.178.126.323.316.412.553zm-11.143-8.555c-1.184 0-2.258.842-2.747 2.154l-2.009 5.393c-.603 1.618.371 3.453 1.832 3.453h14.066c1.46 0 2.433-1.835 1.831-3.453l-2.01-5.393c-.485-1.312-1.56-2.154-2.743-2.154z" fill="#fff"/></svg>