<svg width="24" height="24" viewBox="0 0 24 24" fill="none" xmlns="http://www.w3.org/2000/svg">
<path d="M16 10.747C16 8.097 14.176 6 12 6C9.888 6 8.108 7.975 8.005 10.515L8 10.747V18.5C8 18.8978 7.84196 19.2794 7.56066 19.5607C7.27936 19.842 6.89782 20 6.5 20H4.5C3.83696 20 3.20107 19.7366 2.73223 19.2678C2.26339 18.7989 2 18.163 2 17.5V14.5C2 13.837 2.26339 13.2011 2.73223 12.7322C3.20107 12.2634 3.83696 12 4.5 12H6V10.747C6 7.049 8.653 4 12 4C15.274 4 17.884 6.918 17.996 10.507L18 10.747V12H19.5C20.1347 11.9999 20.7457 12.2412 21.209 12.675C21.6724 13.1088 21.9534 13.7026 21.995 14.336L22 14.5V17.5C22.0001 18.1347 21.7588 18.7457 21.325 19.209C20.8912 19.6724 20.2973 19.9534 19.664 19.995L19.5 20H17.5C17.1271 20 16.7676 19.8611 16.4916 19.6104C16.2156 19.3597 16.0428 19.0152 16.007 18.644L16 18.5V10.747ZM6 14H4.5C4.43434 14 4.36932 14.0129 4.30866 14.0381C4.248 14.0632 4.19288 14.1 4.14645 14.1464C4.10002 14.1929 4.06319 14.248 4.03806 14.3087C4.01293 14.3693 4 14.4343 4 14.5V17.5C4 17.6326 4.05268 17.7598 4.14645 17.8536C4.24021 17.9473 4.36739 18 4.5 18H6V14ZM19.5 14H18V18H19.5C19.617 18 19.7304 17.959 19.8203 17.8841C19.9102 17.8092 19.9709 17.7051 19.992 17.59L20 17.5V14.5C20 14.383 19.959 14.2696 19.8841 14.1797C19.8092 14.0898 19.7051 14.0291 19.59 14.008L19.5 14Z" fill="white"/>
</svg>
