<svg width="24" height="24" viewBox="0 0 24 24" fill="none" xmlns="http://www.w3.org/2000/svg">
<path d="M12 2C17.523 2 22 6.477 22 12C22 17.43 17.673 21.848 12.28 21.996L12 22C6.477 22 2 17.523 2 12C2 6.477 6.477 2 12 2ZM11.125 16.925C10.465 16.958 9.825 17.029 9.213 17.133C9.713 18.479 10.393 19.466 11.125 19.914V16.925ZM12.945 16.929L12.943 19.871C13.65 19.404 14.303 18.436 14.787 17.134C14.345 17.058 13.887 17 13.417 16.961L12.944 16.929H12.945ZM7.431 17.559L7.364 17.579C7.019 17.691 6.691 17.814 6.382 17.949C6.92104 18.4583 7.52654 18.8922 8.182 19.239C7.94623 18.8137 7.74008 18.3727 7.565 17.919L7.431 17.559ZM16.57 17.559L16.504 17.739C16.3142 18.2561 16.0845 18.7576 15.817 19.239C16.4727 18.8926 17.0782 18.4586 17.617 17.949C17.2753 17.8001 16.9258 17.6699 16.57 17.559ZM6.567 12.909L3.868 12.91C4.00998 14.1967 4.45703 15.4309 5.172 16.51C5.711 16.24 6.304 16.005 6.938 15.808C6.76895 15.0189 6.65501 14.2189 6.597 13.414L6.567 12.91V12.909ZM20.132 12.91H17.433C17.3899 13.8849 17.2661 14.8545 17.063 15.809C17.6697 15.9941 18.2603 16.2282 18.829 16.509C19.4757 15.5316 19.9038 14.4261 20.084 13.268L20.132 12.91ZM11.125 12.909H8.387C8.434 13.784 8.545 14.614 8.707 15.379C9.50575 15.2322 10.3137 15.1407 11.125 15.105V12.909ZM15.613 12.909H12.943V15.108C13.753 15.148 14.54 15.238 15.292 15.376C15.4632 14.5637 15.5702 13.7391 15.612 12.91L15.613 12.909ZM18.536 7.078L18.376 7.152C17.928 7.35 17.448 7.525 16.942 7.677C17.2188 8.7955 17.3833 9.93883 17.433 11.09H20.132C19.9709 9.63338 19.4195 8.24728 18.536 7.078ZM5.463 7.079L5.453 7.093C4.57597 8.25919 4.02853 9.63969 3.868 11.09H6.567C6.623 9.88 6.793 8.729 7.058 7.676C6.51291 7.5149 5.97991 7.3154 5.463 7.079ZM8.83 8.094L8.772 8.337C8.56244 9.24146 8.4336 10.1627 8.387 11.09H11.125V8.344C10.5057 8.31605 9.88825 8.25664 9.275 8.166L8.83 8.094ZM15.169 8.094L15.009 8.122C14.344 8.232 13.652 8.306 12.944 8.341L12.943 11.09H15.613C15.5688 10.2145 15.4517 9.34411 15.263 8.488L15.169 8.094ZM9.448 6.289L9.422 6.349C9.97 6.435 10.54 6.494 11.125 6.524V4.086C10.501 4.467 9.917 5.239 9.448 6.289ZM12.943 4.129L12.944 6.519C13.504 6.489 14.052 6.432 14.578 6.349C14.122 5.307 13.553 4.532 12.943 4.129ZM8.183 4.762L8.074 4.82C7.626 5.065 7.204 5.351 6.812 5.673C7.069 5.773 7.338 5.864 7.617 5.947C7.789 5.524 7.977 5.127 8.183 4.762ZM15.818 4.762L15.921 4.953C16.087 5.265 16.241 5.596 16.381 5.946C16.662 5.864 16.931 5.773 17.189 5.675C16.7639 5.32527 16.3046 5.01939 15.818 4.762Z" fill="white"/>
</svg>
